<mxfile host="Electron" agent="Mozilla/5.0 (Windows NT 10.0; Win64; x64) AppleWebKit/537.36 (KHTML, like Gecko) draw.io/26.1.1 Chrome/132.0.6834.210 Electron/34.3.3 Safari/537.36" version="26.1.1">
  <diagram name="Page-1" id="1TvJFZpCCsVlD1c309pt">
    <mxGraphModel dx="3243" dy="1197" grid="1" gridSize="10" guides="1" tooltips="1" connect="1" arrows="1" fold="1" page="1" pageScale="1" pageWidth="1169" pageHeight="827" math="0" shadow="0">
      <root>
        <mxCell id="0" />
        <mxCell id="1" parent="0" />
        <mxCell id="Gv54UPKtSoBTYh8H3Rzt-41" value="Zdrojové registre pre oprávnenia" style="html=1;outlineConnect=0;whiteSpace=wrap;shape=mxgraph.archimate3.application;appType=grouping;archiType=square;dashed=1;fillColor=#D2D7D7;strokeColor=#000000;align=center;verticalAlign=top;spacing=2;fontFamily=Helvetica;fontSize=12;" vertex="1" parent="1">
          <mxGeometry x="-120" y="1220" width="740" height="260" as="geometry" />
        </mxCell>
        <mxCell id="Gv54UPKtSoBTYh8H3Rzt-26" value="Register Zastupovaní" style="html=1;outlineConnect=0;whiteSpace=wrap;fillColor=#66CCFF;shape=mxgraph.archimate3.application;appType=comp;archiType=square;strokeColor=#000000;container=0;spacing=10;verticalAlign=top;fontSize=14;fontStyle=1" vertex="1" parent="1">
          <mxGeometry x="-120" y="460" width="740" height="340" as="geometry" />
        </mxCell>
        <mxCell id="Gv54UPKtSoBTYh8H3Rzt-38" value="" style="html=1;outlineConnect=0;whiteSpace=wrap;shape=mxgraph.archimate3.application;appType=grouping;archiType=square;dashed=1;fillColor=none;strokeColor=#000000;align=center;verticalAlign=top;spacing=2;fontFamily=Helvetica;fontSize=12;fontColor=default;" vertex="1" parent="1">
          <mxGeometry x="70" y="560" width="360" height="220" as="geometry" />
        </mxCell>
        <mxCell id="Gv54UPKtSoBTYh8H3Rzt-5" value="Register Kompetencií" style="html=1;outlineConnect=0;whiteSpace=wrap;fillColor=#66CCFF;shape=mxgraph.archimate3.application;appType=comp;archiType=square;strokeColor=#000000;container=0;spacing=10;verticalAlign=top;fontSize=14;fontStyle=1" vertex="1" parent="1">
          <mxGeometry x="-120" y="80" width="740" height="340" as="geometry" />
        </mxCell>
        <mxCell id="Gv54UPKtSoBTYh8H3Rzt-20" value="" style="html=1;outlineConnect=0;whiteSpace=wrap;shape=mxgraph.archimate3.application;appType=grouping;archiType=square;dashed=1;fillColor=none;strokeColor=#000000;align=center;verticalAlign=top;spacing=2;fontFamily=Helvetica;fontSize=12;fontColor=default;" vertex="1" parent="1">
          <mxGeometry x="70" y="180" width="360" height="220" as="geometry" />
        </mxCell>
        <mxCell id="Gv54UPKtSoBTYh8H3Rzt-46" value="" style="edgeStyle=orthogonalEdgeStyle;rounded=0;orthogonalLoop=1;jettySize=auto;html=1;fontFamily=Helvetica;fontSize=12;fontColor=default;strokeColor=default;align=center;verticalAlign=middle;labelBackgroundColor=default;elbow=vertical;endArrow=open;endFill=1;" edge="1" parent="1" source="Gv54UPKtSoBTYh8H3Rzt-23" target="GmVDiNi3B5Sr9yEHVvkg-3">
          <mxGeometry relative="1" as="geometry" />
        </mxCell>
        <mxCell id="Gv54UPKtSoBTYh8H3Rzt-10" value="Register Oprávnení" style="html=1;outlineConnect=0;whiteSpace=wrap;fillColor=#66CCFF;shape=mxgraph.archimate3.application;appType=comp;archiType=square;strokeColor=#000000;container=0;spacing=10;verticalAlign=top;fontSize=14;fontStyle=1" vertex="1" parent="1">
          <mxGeometry x="-120" y="840" width="740" height="340" as="geometry" />
        </mxCell>
        <mxCell id="Gv54UPKtSoBTYh8H3Rzt-25" value="" style="html=1;outlineConnect=0;whiteSpace=wrap;shape=mxgraph.archimate3.application;appType=grouping;archiType=square;dashed=1;fillColor=none;strokeColor=#000000;align=center;verticalAlign=top;spacing=2;fontFamily=Helvetica;fontSize=12;fontColor=default;" vertex="1" parent="1">
          <mxGeometry x="70" y="940" width="360" height="220" as="geometry" />
        </mxCell>
        <mxCell id="GmVDiNi3B5Sr9yEHVvkg-2" value="CMÚ" style="html=1;outlineConnect=0;whiteSpace=wrap;shape=mxgraph.archimate3.application;appType=comp;archiType=square;" parent="1" vertex="1">
          <mxGeometry x="-100" y="1270" width="160" height="80" as="geometry" />
        </mxCell>
        <mxCell id="GmVDiNi3B5Sr9yEHVvkg-3" value="CSRÚ" style="html=1;outlineConnect=0;whiteSpace=wrap;shape=mxgraph.archimate3.application;appType=comp;archiType=square;rounded=0;strokeColor=default;align=center;verticalAlign=middle;fontFamily=Helvetica;fontSize=12;fontColor=default;labelBackgroundColor=default;" parent="1" vertex="1">
          <mxGeometry x="-340" y="970" width="160" height="80" as="geometry" />
        </mxCell>
        <mxCell id="GmVDiNi3B5Sr9yEHVvkg-4" value="MOU" style="html=1;outlineConnect=0;whiteSpace=wrap;shape=mxgraph.archimate3.application;appType=comp;archiType=square;" parent="1" vertex="1">
          <mxGeometry x="80" y="1270" width="160" height="80" as="geometry" />
        </mxCell>
        <mxCell id="GmVDiNi3B5Sr9yEHVvkg-5" value="Slovensko.sk" style="html=1;outlineConnect=0;whiteSpace=wrap;shape=mxgraph.archimate3.application;appType=comp;archiType=square;" parent="1" vertex="1">
          <mxGeometry x="260" y="1270" width="160" height="80" as="geometry" />
        </mxCell>
        <mxCell id="GmVDiNi3B5Sr9yEHVvkg-6" value="MetaIS" style="html=1;outlineConnect=0;whiteSpace=wrap;shape=mxgraph.archimate3.application;appType=comp;archiType=square;" parent="1" vertex="1">
          <mxGeometry x="440" y="1270" width="160" height="80" as="geometry" />
        </mxCell>
        <mxCell id="Gv54UPKtSoBTYh8H3Rzt-17" value="CAMP" style="html=1;outlineConnect=0;whiteSpace=wrap;shape=mxgraph.archimate3.application;appType=comp;archiType=square;" vertex="1" parent="1">
          <mxGeometry x="-340" y="1070" width="160" height="80" as="geometry" />
        </mxCell>
        <mxCell id="Gv54UPKtSoBTYh8H3Rzt-4" value="Katalóg Agend" style="html=1;outlineConnect=0;whiteSpace=wrap;fillColor=#00AEE8;shape=mxgraph.archimate3.application;appType=comp;archiType=square;strokeColor=#000000;container=1;spacing=10;verticalAlign=top;fontSize=14;" vertex="1" parent="1">
          <mxGeometry x="80" y="210" width="160" height="80" as="geometry" />
        </mxCell>
        <mxCell id="Gv54UPKtSoBTYh8H3Rzt-3" value="- Agendy&lt;div&gt;- Činnosti&lt;/div&gt;" style="text;strokeColor=none;align=left;fillColor=none;html=1;verticalAlign=top;whiteSpace=wrap;rounded=0;spacingLeft=8;" vertex="1" parent="Gv54UPKtSoBTYh8H3Rzt-4">
          <mxGeometry y="40" width="160" height="40" as="geometry" />
        </mxCell>
        <mxCell id="Gv54UPKtSoBTYh8H3Rzt-6" value="Katalóg Služieb" style="html=1;outlineConnect=0;whiteSpace=wrap;fillColor=#00AEE8;shape=mxgraph.archimate3.application;appType=comp;archiType=square;strokeColor=#000000;container=1;spacing=10;verticalAlign=top;fontSize=14;" vertex="1" parent="1">
          <mxGeometry x="80" y="310" width="160" height="80" as="geometry" />
        </mxCell>
        <mxCell id="Gv54UPKtSoBTYh8H3Rzt-7" value="- IS VS&lt;div&gt;- Služby&lt;/div&gt;" style="text;strokeColor=none;align=left;fillColor=none;html=1;verticalAlign=top;whiteSpace=wrap;rounded=0;spacingLeft=8;" vertex="1" parent="Gv54UPKtSoBTYh8H3Rzt-6">
          <mxGeometry y="40" width="160" height="40" as="geometry" />
        </mxCell>
        <mxCell id="Gv54UPKtSoBTYh8H3Rzt-8" value="Katalóg Údajov" style="html=1;outlineConnect=0;whiteSpace=wrap;fillColor=#00AEE8;shape=mxgraph.archimate3.application;appType=comp;archiType=square;strokeColor=#000000;container=1;spacing=10;verticalAlign=top;fontSize=14;" vertex="1" parent="1">
          <mxGeometry x="260" y="210" width="160" height="80" as="geometry" />
        </mxCell>
        <mxCell id="Gv54UPKtSoBTYh8H3Rzt-9" value="- Objekty evidencie" style="text;strokeColor=none;align=left;fillColor=none;html=1;verticalAlign=top;whiteSpace=wrap;rounded=0;spacingLeft=8;" vertex="1" parent="Gv54UPKtSoBTYh8H3Rzt-8">
          <mxGeometry y="40" width="160" height="40" as="geometry" />
        </mxCell>
        <mxCell id="Gv54UPKtSoBTYh8H3Rzt-12" value="Katalóg Subjektov" style="html=1;outlineConnect=0;whiteSpace=wrap;fillColor=#00AEE8;shape=mxgraph.archimate3.application;appType=comp;archiType=square;strokeColor=#000000;container=1;spacing=10;verticalAlign=top;fontSize=14;" vertex="1" parent="1">
          <mxGeometry x="260" y="310" width="160" height="80" as="geometry" />
        </mxCell>
        <mxCell id="Gv54UPKtSoBTYh8H3Rzt-13" value="- OVM&lt;div&gt;- FO, PO&lt;/div&gt;" style="text;strokeColor=none;align=left;fillColor=none;html=1;verticalAlign=top;whiteSpace=wrap;rounded=0;spacingLeft=8;" vertex="1" parent="Gv54UPKtSoBTYh8H3Rzt-12">
          <mxGeometry y="40" width="160" height="40" as="geometry" />
        </mxCell>
        <mxCell id="Gv54UPKtSoBTYh8H3Rzt-11" value="Definuje o akých činnostiach a údajoch RKO hovorí.&lt;div&gt;Definuje, kto za tieto údaje a činnosti zodpovedá&lt;/div&gt;" style="text;strokeColor=none;align=left;fillColor=none;html=1;verticalAlign=top;whiteSpace=wrap;rounded=0;fontFamily=Helvetica;fontSize=12;fontColor=default;spacingLeft=8;" vertex="1" parent="1">
          <mxGeometry x="-120" y="120" width="610" height="30" as="geometry" />
        </mxCell>
        <mxCell id="Gv54UPKtSoBTYh8H3Rzt-16" value="Definuje kto má oprávnenie používať údaje a služby a za akým účelom." style="text;strokeColor=none;align=left;fillColor=none;html=1;verticalAlign=top;whiteSpace=wrap;rounded=0;fontFamily=Helvetica;fontSize=12;fontColor=default;spacingLeft=8;" vertex="1" parent="1">
          <mxGeometry x="-120" y="890" width="760" height="30" as="geometry" />
        </mxCell>
        <mxCell id="Gv54UPKtSoBTYh8H3Rzt-14" value="Matica Oprávnení" style="html=1;outlineConnect=0;whiteSpace=wrap;fillColor=#00AEE8;shape=mxgraph.archimate3.application;appType=comp;archiType=square;strokeColor=#000000;container=0;spacing=10;verticalAlign=top;fontSize=14;" vertex="1" parent="1">
          <mxGeometry x="80" y="970" width="160" height="80" as="geometry" />
        </mxCell>
        <mxCell id="Gv54UPKtSoBTYh8H3Rzt-18" value="Správa registra kompetencií" style="html=1;outlineConnect=0;whiteSpace=wrap;fillColor=#00AEE8;shape=mxgraph.archimate3.application;appType=func;archiType=rounded;strokeColor=#000000;align=center;verticalAlign=middle;spacing=10;fontFamily=Helvetica;fontSize=14;" vertex="1" parent="1">
          <mxGeometry x="450" y="210" width="150" height="80" as="geometry" />
        </mxCell>
        <mxCell id="Gv54UPKtSoBTYh8H3Rzt-19" value="Poskytovanie informácií o kompetenciách" style="html=1;outlineConnect=0;whiteSpace=wrap;fillColor=#00AEE8;shape=mxgraph.archimate3.application;appType=serv;archiType=rounded;strokeColor=#000000;align=center;verticalAlign=top;spacing=10;fontFamily=Helvetica;fontSize=14;" vertex="1" parent="1">
          <mxGeometry x="-100" y="210" width="150" height="80" as="geometry" />
        </mxCell>
        <mxCell id="Gv54UPKtSoBTYh8H3Rzt-21" value="Poskytovanie informácií o službách&lt;div&gt;(?? MetaIS)&lt;/div&gt;" style="html=1;outlineConnect=0;whiteSpace=wrap;fillColor=#00AEE8;shape=mxgraph.archimate3.application;appType=serv;archiType=rounded;strokeColor=#000000;align=center;verticalAlign=top;spacing=10;fontFamily=Helvetica;fontSize=14;" vertex="1" parent="1">
          <mxGeometry x="-100" y="310" width="150" height="80" as="geometry" />
        </mxCell>
        <mxCell id="Gv54UPKtSoBTYh8H3Rzt-22" value="Správa registra oprávnení" style="html=1;outlineConnect=0;whiteSpace=wrap;fillColor=#00AEE8;shape=mxgraph.archimate3.application;appType=func;archiType=rounded;strokeColor=#000000;align=center;verticalAlign=middle;spacing=10;fontFamily=Helvetica;fontSize=14;" vertex="1" parent="1">
          <mxGeometry x="450" y="970" width="150" height="80" as="geometry" />
        </mxCell>
        <mxCell id="Gv54UPKtSoBTYh8H3Rzt-23" value="Potvrdenie oprávnenia na údaje" style="html=1;outlineConnect=0;whiteSpace=wrap;fillColor=#00AEE8;shape=mxgraph.archimate3.application;appType=serv;archiType=rounded;strokeColor=#000000;align=center;verticalAlign=middle;spacing=10;fontFamily=Helvetica;fontSize=14;" vertex="1" parent="1">
          <mxGeometry x="-100" y="970" width="150" height="80" as="geometry" />
        </mxCell>
        <mxCell id="Gv54UPKtSoBTYh8H3Rzt-44" style="edgeStyle=orthogonalEdgeStyle;rounded=0;orthogonalLoop=1;jettySize=auto;html=1;fontFamily=Helvetica;fontSize=12;fontColor=default;strokeColor=default;align=center;verticalAlign=middle;labelBackgroundColor=default;elbow=vertical;endArrow=open;endFill=1;" edge="1" parent="1" source="Gv54UPKtSoBTYh8H3Rzt-24" target="Gv54UPKtSoBTYh8H3Rzt-17">
          <mxGeometry relative="1" as="geometry" />
        </mxCell>
        <mxCell id="Gv54UPKtSoBTYh8H3Rzt-24" value="Potvrdenie oprávnenia na službu" style="html=1;outlineConnect=0;whiteSpace=wrap;fillColor=#00AEE8;shape=mxgraph.archimate3.application;appType=serv;archiType=rounded;strokeColor=#000000;align=center;verticalAlign=middle;spacing=10;fontFamily=Helvetica;fontSize=14;" vertex="1" parent="1">
          <mxGeometry x="-100" y="1070" width="150" height="80" as="geometry" />
        </mxCell>
        <mxCell id="Gv54UPKtSoBTYh8H3Rzt-27" value="Katalóg Zastupovaní" style="html=1;outlineConnect=0;whiteSpace=wrap;fillColor=#00AEE8;shape=mxgraph.archimate3.application;appType=comp;archiType=square;strokeColor=#000000;container=0;spacing=10;verticalAlign=top;fontSize=14;" vertex="1" parent="1">
          <mxGeometry x="80" y="590" width="160" height="80" as="geometry" />
        </mxCell>
        <mxCell id="Gv54UPKtSoBTYh8H3Rzt-35" value="Ukladá informácie o zastupovaní" style="text;strokeColor=none;align=left;fillColor=none;html=1;verticalAlign=top;whiteSpace=wrap;rounded=0;fontFamily=Helvetica;fontSize=12;fontColor=default;spacingLeft=8;" vertex="1" parent="1">
          <mxGeometry x="-120" y="500" width="610" height="30" as="geometry" />
        </mxCell>
        <mxCell id="Gv54UPKtSoBTYh8H3Rzt-36" value="Správa registra zastupovaní" style="html=1;outlineConnect=0;whiteSpace=wrap;fillColor=#00AEE8;shape=mxgraph.archimate3.application;appType=func;archiType=rounded;strokeColor=#000000;align=center;verticalAlign=middle;spacing=10;fontFamily=Helvetica;fontSize=14;" vertex="1" parent="1">
          <mxGeometry x="450" y="590" width="150" height="80" as="geometry" />
        </mxCell>
        <mxCell id="Gv54UPKtSoBTYh8H3Rzt-37" value="Zadanie a úprava zastupovania" style="html=1;outlineConnect=0;whiteSpace=wrap;fillColor=#00AEE8;shape=mxgraph.archimate3.application;appType=serv;archiType=rounded;strokeColor=#000000;align=center;verticalAlign=top;spacing=10;fontFamily=Helvetica;fontSize=14;" vertex="1" parent="1">
          <mxGeometry x="-100" y="590" width="150" height="80" as="geometry" />
        </mxCell>
        <mxCell id="Gv54UPKtSoBTYh8H3Rzt-39" value="Poskytovanie informácií o zastupovaní" style="html=1;outlineConnect=0;whiteSpace=wrap;fillColor=#00AEE8;shape=mxgraph.archimate3.application;appType=serv;archiType=rounded;strokeColor=#000000;align=center;verticalAlign=top;spacing=10;fontFamily=Helvetica;fontSize=14;" vertex="1" parent="1">
          <mxGeometry x="-100" y="690" width="150" height="80" as="geometry" />
        </mxCell>
        <mxCell id="Gv54UPKtSoBTYh8H3Rzt-15" value="- Kto, čo a ako&lt;div&gt;&lt;br&gt;&lt;/div&gt;" style="text;strokeColor=none;align=left;fillColor=none;html=1;verticalAlign=top;whiteSpace=wrap;rounded=0;spacingLeft=8;" vertex="1" parent="1">
          <mxGeometry x="80" y="1010" width="160" height="40" as="geometry" />
        </mxCell>
        <mxCell id="Gv54UPKtSoBTYh8H3Rzt-40" value="Integrácie na zdrojové registre oprávnení" style="html=1;outlineConnect=0;whiteSpace=wrap;fillColor=#00AEE8;shape=mxgraph.archimate3.application;appType=comp;archiType=square;strokeColor=#000000;container=0;spacing=10;verticalAlign=top;fontSize=14;" vertex="1" parent="1">
          <mxGeometry x="80" y="1070" width="160" height="80" as="geometry" />
        </mxCell>
        <mxCell id="Gv54UPKtSoBTYh8H3Rzt-42" value="Register kompetencií" style="html=1;outlineConnect=0;whiteSpace=wrap;shape=mxgraph.archimate3.application;appType=comp;archiType=square;dashed=1;" vertex="1" parent="1">
          <mxGeometry x="-100" y="1370" width="160" height="80" as="geometry" />
        </mxCell>
        <mxCell id="Gv54UPKtSoBTYh8H3Rzt-43" value="Register zastupovaní" style="html=1;outlineConnect=0;whiteSpace=wrap;shape=mxgraph.archimate3.application;appType=comp;archiType=square;dashed=1;" vertex="1" parent="1">
          <mxGeometry x="80" y="1370" width="160" height="80" as="geometry" />
        </mxCell>
      </root>
    </mxGraphModel>
  </diagram>
</mxfile>
